<?xml version="1.0" standalone="no"?>
<!DOCTYPE svg PUBLIC "-//W3C//DTD SVG 1.1//EN" "http://www.w3.org/Graphics/SVG/1.1/DTD/svg11.dtd" >
<!--
2013-9-30: Created.
-->
<svg>
<metadata>
Created by iconfont
</metadata>
<defs>

<font id="iconfont" horiz-adv-x="1024" >
  <font-face
    font-family="iconfont"
    font-weight="500"
    font-stretch="normal"
    units-per-em="1024"
    ascent="896"
    descent="-128"
  />
    <missing-glyph />
    
    <glyph glyph-name="x" unicode="x" horiz-adv-x="1001"
d="M281 543q-27 -1 -53 -1h-83q-18 0 -36.5 -6t-32.5 -18.5t-23 -32t-9 -45.5v-76h912v41q0 16 -0.5 30t-0.5 18q0 13 -5 29t-17 29.5t-31.5 22.5t-49.5 9h-133v-97h-438v97zM955 310v-52q0 -23 0.5 -52t0.5 -58t-10.5 -47.5t-26 -30t-33 -16t-31.5 -4.5q-14 -1 -29.5 -0.5
t-29.5 0.5h-32l-45 128h-439l-44 -128h-29h-34q-20 0 -45 1q-25 0 -41 9.5t-25.5 23t-13.5 29.5t-4 30v167h911zM163 247q-12 0 -21 -8.5t-9 -21.5t9 -21.5t21 -8.5q13 0 22 8.5t9 21.5t-9 21.5t-22 8.5zM316 123q-8 -26 -14 -48q-5 -19 -10.5 -37t-7.5 -25t-3 -15t1 -14.5
t9.5 -10.5t21.5 -4h37h67h81h80h64h36q23 0 34 12t2 38q-5 13 -9.5 30.5t-9.5 34.5q-5 19 -11 39h-368zM336 498v228q0 11 2.5 23t10 21.5t20.5 15.5t34 6h188q31 0 51.5 -14.5t20.5 -52.5v-227h-327z" />
    

    
    <glyph glyph-name="play" unicode="&#58881;" d="M832.0064 384 192 0 192 768 832.0064 384 832.0064 384zM832.0064 384"  horiz-adv-x="1024" />

    
    <glyph glyph-name="viewoff" unicode="&#58988;" d="M895.962 382.528c-0.019-0.333-0.051-0.646-0.070-0.954-0.013-0.166-0.032-0.326-0.045-0.493-0.013-0.237-0.064-0.474-0.096-0.698-0.032-0.269-0.058-0.538-0.109-0.813 0-0.032-0.013-0.070-0.013-0.102-0.941-6.080-3.744-11.77-8.026-16.16-8.051-9.773-16.864-18.944-25.709-27.942-47.853-48.589-102.765-91.91-162.88-123.36-38.432-20.077-79.469-36.282-122.042-44.077-46.81-8.57-93.683-8.134-140.256 1.99-36.941 8.038-72.205 21.728-105.805 39.014l1.082 1.082 96.032 63.168c23.654-17.024 52.595-27.174 83.962-27.174 79.533 0 144 64.474 144 144 0 10.624-1.222 20.941-3.411 30.912l126.912 83.494c8.416-6.317 16.698-12.794 24.832-19.411 29.626-24.154 58.778-50.592 83.277-80.307 4.282-4.384 7.072-10.080 8.026-16.154 0-0.026 0.006-0.070 0.013-0.109 0.045-0.262 0.083-0.531 0.109-0.806 0.032-0.237 0.077-0.467 0.090-0.704 0.019-0.154 0.032-0.32 0.051-0.486 0.026-0.326 0.051-0.64 0.064-0.966 0.019-0.506 0.051-0.973 0.051-1.472 0-0.499-0.019-0.979-0.038-1.472v0zM511.994 317.997c-4.717 0-9.312 0.486-13.779 1.357l84.122 55.334c-7.027-32.397-35.827-56.691-70.342-56.691v0zM827.846 572.928l-623.987-407.968c-2.829-1.862-6.214-2.95-9.85-2.95-9.946 0-18.003 8.058-18.003 18.003 0 6.304 3.251 11.846 8.154 15.066l-0.006 0.006 623.987 407.981c2.829 1.85 6.208 2.938 9.85 2.938 9.939 0 17.997-8.058 17.997-17.997 0-6.304-3.245-11.846-8.154-15.059l0.013-0.019zM511.994 462.003c6.867 0 13.485-1.024 19.776-2.816l-91.245-60.832c4.141 35.821 34.541 63.648 71.469 63.648v0zM599.386 504.269c-24.25 18.573-54.483 29.734-87.386 29.734-79.526 0-144-64.467-144-144 0-12.723 1.818-24.986 4.909-36.73l-131.443-87.642c-7.488 5.67-14.886 11.45-22.144 17.363-29.638 24.16-58.784 50.586-83.283 80.307-10.72 12.998-10.72 28.397 0 41.389 8.051 9.766 16.864 18.944 25.715 27.936 47.853 48.589 102.758 91.923 162.88 123.36 38.413 20.083 79.456 36.294 122.035 44.083 46.816 8.563 93.677 8.134 140.25-1.984 34.714-7.552 67.923-20.147 99.693-35.955l-6.618-4.134-80.608-53.728zM599.386 504.269z"  horiz-adv-x="1024" />

    
    <glyph glyph-name="operation-button" unicode="&#59015;" d="M512 768c-212.077 0-384-171.923-384-384s171.923-384 384-384c212.077 0 384 171.923 384 384 0 212.077-171.923 384-384 384zM429.331 356.8h-54.4v54.4h54.4v-54.4zM539.2 356.8h-54.4v54.4h54.4v-54.4zM649.069 356.8h-54.406v54.4h54.406v-54.4z"  horiz-adv-x="1024" />

    
    <glyph glyph-name="close-round" unicode="&#59026;" d="M199.51624113 130.63479009000002L199.51624113 715.32568498 5.26958021 482.53373013 123.50667813 483.23470722 123.50667813 52.68276050999998 705.19097253 52.68276050999998 629.18140958 130.63479009000002ZM1018.73041979 285.47471537L900.49332187 284.76529278 900.49332187 715.31723949 318.80902747 715.31723949 394.81859042 637.36520991 824.48375887 637.36520991 824.48375887 52.68276050999998ZM324.60264526 296.32719184999996l3.00660047-28.22488436c25.83480592 3.26841121 51.92297702 6.5114859 78.27295885 9.77989709l0-80.1478614 27.09318644 0 0 83.17135291c17.05992414 1.99313966 34.23808538 4.01161581 51.55137473 6.02164649 0.49828491 12.28821268 0.87833271 21.57827037 1.12325244 27.84483658-16.80655891-2.50831557-34.36476798-4.89839406-52.67462717-7.16178995l0 50.8081701 48.16472641 0L481.14011743 384l-48.16472641 0 0 82.40281174-27.09318644 0L405.88220458 384l-45.15812591 0c11.53656255 32.10981761 23.07312513 65.97630064 34.61813318 101.59944916l91.43950426 0 0 25.58988621-83.16290742 0c5.51491607 17.05992414 11.03827764 34.61813317 16.55319373 52.68307266l-28.97653449 6.39324879c-4.51834625-18.56322437-9.9065797-38.2581467-16.18159141-59.07632145l-46.28137834 0 0-25.58988621 38.7564316 0c-10.0332623-32.10981761-21.57827037-66.60126818-34.61813318-103.48279721l0-23.70653814 73.00296247 0L405.87375907 304.61223424C380.03895318 301.58874272 352.94576672 298.83550745 324.60264526 296.32719184999996zM509.73660413 423.88812955l0-169.70401761c0-29.09477161 15.31170418-43.64638014 45.90977601-43.64638014l65.47801575 0c30.60651735 0 48.03804381 13.67327583 52.30302484 41.00293646 3.00660049 16.56163922 5.26999635 34.37321347 6.77329661 53.44316826-16.80655891 6.5114859-26.21485372 10.15994493-28.22488437 10.90314955-1.24993505-20.57325505-3.25996571-39.00979682-6.0216465-55.30962532-2.50831557-15.05833898-12.53313238-22.58328573-30.09978694-22.5832857l-51.17132688 0c-17.56665455 0-26.34153632 7.78675744-26.34153633 23.34338133l0 48.5278832c38.1314641 19.57668523 76.38961079 46.91479137 114.76599458 82.03120945l-23.70653814 17.68489166c-27.84483658-26.84826674-58.20643422-49.79470926-91.05945644-68.85621855l0 83.1544619L509.73660413 423.87968404zM562.79972459 566.5074062c-25.58144069-54.69310332-60.84143239-98.8462139-105.73774761-132.45933175 7.52494673-6.77329661 14.29824334-14.05332366 20.31988985-21.82319006 36.37479865 29.10321711 68.99134667 67.73296611 97.84119855 115.89769251 29.09477161-50.67304198 63.72135029-87.92617334 103.86284504-111.75939409 5.51491607 7.52494673 12.28821268 15.80998909 20.31144432 24.83823609-42.89473004 21.82319008-78.39119594 59.82797156-106.48939772 114.01434446l6.78174212 11.29164284L562.79972459 566.5074062z"  horiz-adv-x="1024" />

    
    <glyph glyph-name="tips-lock-screen" unicode="&#59024;" d="M801.133 478.874h-28.013v24.397c0 0.301-0.006 0.602-0.019 0.909 0.013 0.294 0.019 0.595 0.019 0.902 0 70.234-27.347 136.262-77.005 185.92-49.664 49.651-115.693 76.998-185.914 76.998-70.24 0-136.262-27.347-185.926-77.005-49.664-49.664-77.005-115.693-77.005-185.92 0-0.301 0.006-0.602 0.019-0.902-0.013-0.301-0.019-0.608-0.019-0.909v-24.397h-24.403c-32.384 0-58.726-26.349-58.726-58.733v-361.408c0-32.39 26.342-58.733 58.726-58.733h578.266c32.384 0 58.726 26.342 58.726 58.733v361.408c0 32.39-26.349 58.739-58.726 58.739v0zM292.416 504.173c0.013 0.294 0.032 0.595 0.032 0.902 0 58.163 22.643 112.845 63.776 153.971 41.126 41.133 95.808 63.776 153.978 63.776 58.163 0 112.838-22.65 153.965-63.776 41.133-41.126 63.782-95.808 63.782-153.971 0-0.301 0.013-0.602 0.026-0.902-0.013-0.301-0.026-0.608-0.026-0.909v-24.397h-435.514v24.397c0.013 0.301-0.006 0.602-0.019 0.909v0zM814.688 58.733c0-7.475-6.086-13.555-13.555-13.555h-578.266c-7.469 0-13.549 6.080-13.549 13.555v361.408c0 7.475 6.080 13.555 13.549 13.555h578.266c7.469 0 13.555-6.080 13.555-13.555v-361.408zM512 370.451c-52.314 0-94.874-42.56-94.874-94.874 0-29.158 13.581-56.634 36.141-74.477v-33.952c0-32.384 26.342-58.726 58.733-58.726h3.61c32.39 0 58.733 26.342 58.733 58.726v36.922c20.563 17.907 32.531 43.827 32.531 71.507 0 52.307-42.56 94.874-94.874 94.874v0zM539.315 234.067l-10.144-6.694v-60.224c0-7.469-6.074-13.549-13.555-13.549l-3.616 0c-7.475 0-13.549 6.080-13.549 13.549v58.861l-11.277 6.528c-15.334 8.877-24.87 25.37-24.87 43.040 0 27.398 22.291 49.696 49.696 49.696 27.405 0 49.696-22.291 49.696-49.696 0-16.749-8.365-32.256-22.381-41.51v0zM539.315 234.067z"  horiz-adv-x="1024" />

    
    <glyph glyph-name="disable" unicode="&#58992;" d="M896 384c0 212.077-171.923 384-384 384s-384-171.923-384-384 171.923-384 384-384 384 171.923 384 384v0zM224 384c0 159.066 128.941 288 288 288 159.066 0 288-128.934 288-288 0-159.059-128.941-288-288-288s-288 128.941-288 288v0zM746.566 217.299l-401.267 401.267c-26.253-18.694-49.184-41.626-67.872-67.866l401.267-401.267c26.246 18.688 49.178 41.626 67.872 67.866v0zM746.566 217.299z"  horiz-adv-x="1024" />

    
    <glyph glyph-name="private-chat" unicode="&#58993;" d="M515.347 725.331v0c201.971 0 365.709-132.512 365.709-295.962s-163.738-295.955-365.709-295.955c-19.411 0-38.419 1.242-57.030 3.59-78.554-78.24-169.28-92.282-259.923-94.336v0c48.954 23.891 88.384 86.554 88.384 136.269 0 6.944-0.538 13.747-1.536 20.403-82.694 54.246-135.603 137.146-135.603 230.003 0 163.45 163.738 295.955 365.715 295.955v0.032zM908.486 61.958z"  horiz-adv-x="1024" />

    
    <glyph glyph-name="out-meeting" unicode="&#58994;" d="M825.978 768h-627.955c-28.275 0-51.2-22.925-51.2-51.2v-716.8h42.509l-0 672c0 28.275 22.925 51.2 51.2 51.2h542.938c28.275 0 51.2-22.925 51.2-51.2v-243.2c-69.331-18.4-178.669 72-178.669 72-26.4 46.4-69.6 55.2-69.6 55.2h-192.8l-92-136c-19.75-29.203 0-39.2 0-39.2 26.4-18.4 41.6 9.6 41.6 9.6l89.6 106.4 37.6 0 0.8-20.8-69.6-111.2-2.4-167.2-157.6 0.8c-35.2 0.8-32.8-42.4-32.8-42.4 0-39.2 26.4-42.4 26.4-42.4l208-0.8c31.2 0 27.2 88.8 27.2 88.8-1.6 48.8 26.4 68.8 26.4 68.8l129.6-221.6c20.8-50.4 54.4-23.2 54.4-23.2 29.6 12 21.6 31.2 21.6 31.2l-135.2 248.8c-24.8 45.6 53.331 133.6 53.331 133.6 25.331-23.2 106.669-63.2 106.669-63.2 46.573-1.837 89.76 3.821 107.469 6.579v-382.579h42.509v716.8c0 28.275-22.918 51.2-51.2 51.2zM560.762 632.781c0-33.010 26.76-59.77 59.77-59.77s59.77 26.76 59.77 59.77c0 0 0 0 0 0 0 33.010-26.76 59.77-59.77 59.77-33.010 0-59.77-26.76-59.77-59.77 0-0 0-0 0-0z"  horiz-adv-x="1024" />

    
    <glyph glyph-name="video-conferencing-upload" unicode="&#58995;" d="M837.338 412.8v-336h-650.669v336h-58.669v-395.917h768v395.917zM406.086 533.965l59.834 59.834v-273.882c0-25.453 20.64-46.074 46.080-46.074s46.086 20.627 46.086 46.074v273.875l59.827-59.827c18.003-18.003 47.168-17.99 65.171 0 18.003 17.984 18.003 47.162 0 65.165l-138.496 138.502c-8.998 8.998-20.794 13.491-32.589 13.491-11.789 0-23.584-4.493-32.582-13.491l-138.49-138.502c-18.003-18.003-18.003-47.181 0-65.165 17.997-17.984 47.162-18.003 65.158 0z"  horiz-adv-x="1024" />

    
    <glyph glyph-name="earphone" unicode="&#58996;" d="M552.192 768l-25.4208-3.0016L307.4112 581.0432 191.936 581.0432c-30.528 0-64.1728-33.1072-64.1728-64.5824l0-284.0128c0-31.2 33.2032-64.5888 64.1728-64.5888l115.4752 0L538.4128 0c31.5648 0 70.0032 25.3056 70.0032 56.5056L608.416 711.488C608.4096 742.6944 583.7568 768 552.192 768zM793.6 701.8688l-59.7312-56.5312C819.7376 513.0624 816 384 816 384s3.7376-129.0624-82.1312-261.3248l59.7312-56.5376c0 0 102.4 140.2624 102.4 317.8624S793.6 701.8688 793.6 701.8688z"  horiz-adv-x="1024" />

    
    <glyph glyph-name="prohibit" unicode="&#59027;" d="M512 768c-212.077 0-384-171.923-384-384s171.923-384 384-384c212.077 0 384 171.923 384 384 0 212.077-171.923 384-384 384zM851.2 384c0-85.869-31.974-164.23-84.582-223.987l-478.605 478.611c59.757 52.602 138.118 84.576 223.987 84.576 187.334 0 339.2-151.866 339.2-339.2zM172.8 384c0 85.869 31.974 164.23 84.576 223.987l478.605-478.611c-59.757-52.602-138.112-84.576-223.981-84.576-187.334 0-339.2 151.866-339.2 339.2z"  horiz-adv-x="1024" />

    
    <glyph glyph-name="broadcast-next" unicode="&#59025;" d="M152 744L152 24 465.998 384ZM425.996 503.244L556.004 384 425.996 264.76199999999994 425.996 24 780.002 384 425.996 744ZM781.004 744l90 0 0-720-90 0 0 720Z"  horiz-adv-x="1024" />

    
    <glyph glyph-name="close" unicode="&#58999;" d="M578.65625 384l256.455 256.460625c18.855 18.849375 19.243125 49.100625 0.84375 67.494375-18.399375 18.399375-48.645 18-67.494375-0.84375L512 450.650625 255.539375 707.105625c-18.849375 18.849375-49.095 19.24875-67.494375 0.84375-18.399375-18.399375-18.005625-48.645 0.84375-67.494375L445.349375 384l-256.455-256.455c-18.849375-18.855-19.243125-49.095-0.838125-67.48875 18.399375-18.399375 48.639375-18.01125 67.494375 0.8325L512 317.34375l256.455-256.460625c18.855-18.849375 49.095-19.2375 67.494375-0.8325 18.399375 18.399375 18.005625 48.63375-0.838125 67.48875L578.65625 384z"  horiz-adv-x="1024" />

    
    <glyph glyph-name="use-enter" unicode="&#59000;" d="M512 768c-212.083 0-384-171.923-384-384 0-70.803 19.245-137.075 52.666-194.016 19.11-32.57 42.848-62.067 70.368-87.584 68.506-63.52 160.179-102.4 260.966-102.4 113.862 0 216.102 49.6 286.419 128.32 17.85 19.981 33.594 41.856 46.989 65.254 32.128 56.141 50.592 121.107 50.592 190.426 0 212.077-171.923 384-384 384zM795.162 221.734c-10.33 4.525-21.702 9.094-34.061 13.651-57.35 21.133-75.68 38.95-75.68 77.126 0 22.899 17.51 15.418 25.197 57.37 3.187 17.408 18.662 0.288 21.619 40.019 0 15.84-8.429 19.77-8.429 19.77s4.282 23.443 5.965 41.466c2.086 22.477-12.845 80.531-92.429 80.531-79.597 0-94.528-58.054-92.435-80.531 1.683-18.029 5.971-41.466 5.971-41.466s-8.435-3.93-8.435-19.77c2.944-39.731 18.426-22.611 21.606-40.019 7.693-41.952 25.203-34.47 25.203-57.37 0-20.621-5.427-35.283-19.373-47.75 73.83-7.424 133.293-63.296 146.323-135.328-16.659-13.382-34.682-25.12-53.779-35.066v8.032c0 0 0 10.035 0 22.24 0 12.346 0 26.906 0 35.552 0 17.203-43.61 42.426-110.758 67.155-66.931 24.659-88.326 45.466-88.326 90.003 0 26.733 20.435 18.003 29.408 66.963 3.725 20.307 21.773 0.326 25.229 46.694 0 18.483-9.843 23.072-9.843 23.072s4.998 27.354 6.963 48.397c2.432 26.227-14.989 93.978-107.872 93.978s-110.342-67.75-107.898-93.971c1.965-21.043 6.97-48.397 6.97-48.397s-9.856-4.589-9.856-23.072c3.45-46.368 21.498-26.387 25.222-46.694 8.979-48.96 29.408-40.237 29.408-66.963 0-44.544-21.382-65.35-88.307-90.003-10.758-3.962-20.838-7.936-30.31-11.891-29.734 49.19-46.854 106.861-46.854 168.538 0 180.269 146.131 326.4 326.4 326.4 180.262 0 326.4-146.131 326.4-326.4 0-59.085-15.782-114.458-43.238-162.266z"  horiz-adv-x="1024" />

    
    <glyph glyph-name="break-up" unicode="&#59001;" d="M747.962 567.462l38.112 42.656 10.598-9.466 17.203 19.264-65.491 58.509-17.203-19.264 10.598-9.466-39.341-44.032c-44.486 31.104-96.902 51.622-153.638 57.869l0 72.467h17.6v32h-108.8v-32h17.6v-72.467c-166.477-18.323-296-159.373-296-330.733 0-183.802 148.998-332.8 332.8-332.8s332.8 148.998 332.8 332.8c0 91.571-36.992 174.49-96.838 234.662zM512 64c-148.454 0-268.8 120.346-268.8 268.8 0 148.461 120.346 268.8 268.8 268.8 148.454 0 268.8-120.339 268.8-268.8 0-148.454-120.346-268.8-268.8-268.8zM512 583.597c-15.904 0-28.8-12.858-28.8-28.723v-211.354c0-15.866 12.896-28.723 28.8-28.723s28.8 12.864 28.8 28.723v211.36c0 15.859-12.896 28.717-28.8 28.717z"  horiz-adv-x="1024" />

    
    <glyph glyph-name="screen-style-switch" unicode="&#59029;" d="M852.934 766.598h-682.669v-336.8h682.669l-0 336.8zM766.003 513.402h-508.8v169.6h508.8v-169.6zM170.669 340.8h298.131v-125.6h-298.131v125.6zM555.2 340.8h298.131v-125.6h-298.131v125.6zM170.669 125.6h298.131v-125.6h-298.131v125.6zM555.2 125.6h298.131v-125.6h-298.131v125.6z"  horiz-adv-x="1024" />

    
    <glyph glyph-name="broadcast" unicode="&#59030;" d="M445.843 109.856c0-17.318 7.123-34.534 19.373-46.784 12.243-12.243 29.466-19.373 46.784-19.373 17.325 0 34.534 7.13 46.79 19.373 12.243 12.25 19.366 29.466 19.366 46.784s-7.123 34.534-19.366 46.784c-12.256 12.25-29.466 19.379-46.79 19.379-17.318 0-34.534-7.13-46.784-19.379-12.25-12.243-19.373-29.466-19.373-46.784v0zM510.963 724.8c-149.318 0-284.595-60.109-382.963-157.44l47.469-47.68c43.411 42.918 93.766 76.691 149.741 100.371 58.797 24.87 121.286 37.478 185.747 37.478s126.957-12.614 185.747-37.478c56.826-24.032 107.866-58.451 151.725-102.304l47.571 47.565c-98.541 98.541-234.669 159.488-385.037 159.488v0zM227.507 427.642l47.469-47.686c30.522 30.086 65.888 53.779 105.184 70.4 41.427 17.517 85.472 26.406 130.912 26.406 45.44 0 89.478-8.89 130.918-26.406 40.038-16.934 76.013-41.203 106.938-72.122l47.565 47.571c-73.050 73.043-173.952 118.221-285.414 118.221-110.534-0.006-210.675-44.429-283.571-116.384v0zM324.186 287.309l47.462-47.667c37.498 36.723 86.957 56.934 139.533 56.934 53.286 0 103.386-20.749 141.069-58.438l47.565 47.578c-48.275 48.269-114.97 78.131-188.634 78.131-72.845-0.006-138.848-29.216-186.995-76.538v0zM324.186 287.309z"  horiz-adv-x="1024" />

    
    <glyph glyph-name="tips-end-lock-screen" unicode="&#59031;" d="M247.27 478.874h-24.403c-32.384 0-58.726-26.349-58.726-58.733v-361.408c0-32.39 26.342-58.733 58.726-58.733h578.266c32.384 0 58.726 26.342 58.726 58.733v361.408c0 32.384-26.342 58.733-58.726 58.733v0h-28.013M727.942 478.874h-435.507M814.688 58.733c0-7.475-6.086-13.555-13.555-13.555h-578.266c-7.469 0-13.549 6.080-13.549 13.555v361.408c0 7.475 6.080 13.555 13.549 13.555h578.266c7.469 0 13.555-6.080 13.555-13.555v-361.408zM512 370.451c-52.314 0-94.874-42.56-94.874-94.874 0-29.158 13.581-56.634 36.141-74.477v-33.952c0-32.384 26.342-58.726 58.733-58.726h3.61c32.39 0 58.733 26.342 58.733 58.726v36.922c20.563 17.907 32.531 43.827 32.531 71.507 0 52.307-42.56 94.874-94.874 94.874v0zM539.315 234.067l-10.144-6.694v-60.224c0-7.469-6.074-13.549-13.555-13.549l-3.616 0c-7.475 0-13.549 6.080-13.549 13.549v58.861l-11.277 6.528c-15.334 8.877-24.87 25.37-24.87 43.040 0 27.398 22.291 49.696 49.696 49.696 27.405 0 49.696-22.291 49.696-49.696 0-16.749-8.365-32.256-22.381-41.51v0zM757.69 599.085c-13.018 34.080-33.203 65.331-59.77 91.904-49.664 49.664-115.686 77.011-185.914 77.011-70.24 0-136.262-27.347-185.926-77.005-49.664-49.664-77.005-115.693-77.005-185.92 0-0.307 0.006-0.608 0.019-0.902-0.013-0.307-0.019-0.614-0.019-0.915v-24.39h45.171v24.39c0.013 0.301-0.006 0.608-0.019 0.915 0.013 0.294 0.032 0.595 0.032 0.902 0 58.163 22.643 112.845 63.776 153.971 41.126 41.133 95.808 63.776 153.978 63.776 58.163 0 112.838-22.65 153.965-63.776 23.667-23.667 41.216-51.814 51.853-82.534z"  horiz-adv-x="1024" />

    
    <glyph glyph-name="chat-system" unicode="&#59005;" d="M465.491 437.363c-0-32.536 26.376-58.912 58.912-58.912s58.912 26.376 58.912 58.912c0 32.536-26.376 58.912-58.912 58.912-32.536 0-58.912-26.376-58.912-58.912zM515.347 725.331v-0.026c-201.971 0-365.715-132.506-365.715-295.955 0-92.864 52.909-175.763 135.603-230.003 0.998-6.656 1.536-13.466 1.536-20.403 0-49.715-39.43-112.378-88.384-136.269 90.65 2.054 181.37 16.102 259.923 94.336 18.605-2.342 37.619-3.59 57.030-3.59 201.971 0 365.709 132.506 365.709 295.955s-163.731 295.955-365.702 295.955zM678.586 378.56c0 0-0.403-0.403-25.050-42.483-86.554 24.646-102.586-58.714-102.586-58.714h-51.091c-25.21 90.714-102.189 57.51-102.189 57.51l-27.053 44.474c69.715 66.112 0.026 114.803 0 114.816 0.026 0.032 0.902 1.363 26.656 44.282 89.062-24.781 102.989 58.912 102.989 58.912h50.496c16.23-83.558 103.392-59.11 103.392-59.11s-0.403-0.8 24.845-42.874c-65.76-60.48-0.41-116.813-0.41-116.813z"  horiz-adv-x="1024" />

    
    <glyph glyph-name="set-spokesman" unicode="&#59007;" d="M410.451 206.496c109.952 0 199.098 89.139 199.098 199.091 0 109.958-89.146 199.098-199.098 199.098-109.958 0-199.098-89.139-199.098-199.098-0-109.958 89.139-199.091 199.098-199.091zM342.49 473.555c0 79.962 38.381 75.162 38.381 75.162 9.6 1.581-30.387-81.562 59.168-94.355 89.555-12.794 126.33-51.142 126.33-51.142 0-145.491-161.51-145.549-161.51-145.549-150.323 4.794-148.723 147.123-148.723 147.123 73.562 15.987 86.355 68.762 86.355 68.762zM527.194 199.296h-233.478c-43.974 0-65.568-51.968-65.568-51.968l-67.962-147.123h500.538l-67.968 147.123c0-0-21.587 51.968-65.562 51.968zM807.046 768.198h-155.52c0 0-57.568 0-57.568-56.371v-96.352c0 0 4.403-54.368 57.568-54.368 53.178 0 69.971 0 69.971 0l38.778-55.974 43.181 56.371h19.187c0 0 41.184-7.597 41.184 49.978s0 119.539 0 119.539-6.010 37.178-56.781 37.178zM821.837 620.275c0 0-1.6-15.597-15.597-15.597-13.99 0-14.79 0-14.79 0l-27.987-43.974-26.79 43.974h-78.758c0 0-22.048 0.403-22.048 19.994l0.064 86.752c0 0-2.4 20.794 22.387 20.794s142.726 0 142.726 0 20.787 0.403 20.787-20.794c0.006-21.184 0.006-91.149 0.006-91.149z"  horiz-adv-x="1024" />

    
    <glyph glyph-name="record" unicode="&#59008;" d="M601.6 640.653h-422.4c-28.275 0-51.2-22.925-51.2-51.2v-410.906c0-28.282 22.925-51.2 51.2-51.2h422.4c28.275 0 51.2 22.918 51.2 51.2v410.906c0 28.282-22.925 51.2-51.2 51.2zM683.738 423.469v-78.931l212.262-182.4v443.731z"  horiz-adv-x="1024" />

    
    <glyph glyph-name="tips-general" unicode="&#59037;" d="M512 768c-212.077 0-384-171.923-384-384s171.923-384 384-384c212.077 0 384 171.923 384 384 0 212.077-171.923 384-384 384zM512 44.8c-187.334 0-339.2 151.866-339.2 339.2 0 187.334 151.866 339.2 339.2 339.2 187.334 0 339.2-151.866 339.2-339.2 0-187.334-151.866-339.2-339.2-339.2zM489.6 609.997h44.8v-361.6h-44.8v361.6zM489.6 203.066h44.8v-45.069h-44.8v45.069z"  horiz-adv-x="1024" />

    
    <glyph glyph-name="download-notebook" unicode="&#59038;" d="M849.92 364.845c-25.446 0-46.086-20.627-46.086-46.086v-211.226h-583.661v211.226c0 25.466-20.646 46.086-46.086 46.086s-46.086-20.627-46.086-46.086v-257.306c0-25.459 20.646-46.086 46.086-46.086 0.192 0 0.384 0.026 0.576 0.032 0.198-0.006 0.39-0.032 0.589-0.032h673.491c0.198 0 0.397 0.026 0.595 0.032 0.192-0.006 0.384-0.032 0.576-0.032 25.446 0 46.080 20.634 46.080 46.086l-0 257.306c0.006 25.459-20.634 46.086-46.074 46.086zM479.462 288.845c9.005-8.998 20.794-13.491 32.589-13.491 11.789 0 23.584 4.493 32.582 13.491l138.496 138.502c18.003 18.003 18.003 47.181 0 65.165-18.003 17.99-47.162 18.003-65.165 0l-59.834-59.827 0 273.869c0 25.459-20.64 46.080-46.080 46.080s-46.086-20.627-46.086-46.080v-273.875l-59.827 59.827c-18.003 18.003-47.168 17.99-65.171 0-18.003-17.984-18.003-47.162 0-65.165l138.496-138.496z"  horiz-adv-x="1024" />

    
    <glyph glyph-name="show" unicode="&#59011;" d="M863.738 713.6h-704c-17.67 0-32-14.33-32-32v-595.2c0-17.677 14.33-32 32-32h704c17.677 0 32 14.323 32 32v595.2c0 17.67-14.323 32-32 32zM419.2 681.6c21.21 0 38.4-17.19 38.4-38.4 0-21.203-17.19-38.4-38.4-38.4-21.203 0-38.4 17.197-38.4 38.4 0 21.203 17.197 38.4 38.4 38.4zM309.069 681.6c21.21 0 38.4-17.19 38.4-38.4 0-21.203-17.19-38.4-38.4-38.4-21.203 0-38.4 17.197-38.4 38.4-0 21.203 17.19 38.4 38.4 38.4zM198.931 681.6c21.21 0 38.4-17.19 38.4-38.4 0-21.203-17.19-38.4-38.4-38.4-21.203 0-38.4 17.197-38.4 38.4 0 21.203 17.197 38.4 38.4 38.4zM860 88.531h-696.531v486.4h696.531v-486.4z"  horiz-adv-x="1024" />

    
    <glyph glyph-name="callout" unicode="&#59012;" d="M832 768h-640c-35.341 0-64-28.653-64-64v-640c0-35.341 28.659-64 64-64h640c35.341 0 64 28.659 64 64v640c0 35.347-28.659 64-64 64zM851.2 172.8c0-28.275-22.925-51.2-51.2-51.2l-576 0c-28.275 0-51.2 22.925-51.2 51.2v505.6c0 28.275 22.925 51.2 51.2 51.2h576c28.275 0 51.2-22.925 51.2-51.2v-505.6zM356.8 580l122.4-328.8 48.8 98.4 64.8-80 34.4 31.2-70.4 80 108.8 28.8z"  horiz-adv-x="1024" />

    
    <glyph glyph-name="editor" unicode="&#59013;" d="M285.51 153.453l172.922 73.619-106.144 104.429-66.778-178.048zM799.117 560.909l-109.568 112.992-317.574-313.299 113.843-118.125 313.299 318.432zM889.389 696.064c0 0-28.998 32.102-62.387 56.493-33.382 24.39-59.066 0-59.066 0l-56.493-56.493 114.701-114.272c0 0 48.365 48.794 63.245 65.478 14.874 16.698 0 48.794 0 48.794v0zM767.232 94.285c0-7.917-6.419-14.349-14.336-14.349h-534.771c-7.917 0-14.336 6.432-14.336 14.349l0 530.534c0 7.923 6.419 14.342 14.336 14.342h339.981l70.803 75.341-483.603-0c-9.555 0-17.306-7.75-17.306-17.299v-675.309c0-9.555 7.75-17.299 17.306-17.299h680.403c9.555 0 17.299 7.744 17.299 17.299v482.33l-75.776-70.342-0-339.597zM767.232 94.285z"  horiz-adv-x="1024" />

    
    <glyph glyph-name="cancel-polling" unicode="&#59044;" d="M346.976 755.238c-7.674 12.557-24.064 16.525-36.614 8.851-12.557-7.667-16.518-24.058-8.851-36.614l355.84-600.205c7.674-12.55 24.064-16.518 36.614-8.845 12.563 7.667 16.525 24.064 8.864 36.614l-355.853 600.198zM512 146.368c-17.318 0-34.534-7.13-46.784-19.379-12.25-12.243-19.373-29.466-19.373-46.784s7.123-34.534 19.373-46.784c12.243-12.243 29.466-19.373 46.784-19.373 17.325 0 34.534 7.13 46.79 19.373 12.243 12.25 19.366 29.466 19.366 46.784s-7.123 34.534-19.366 46.784c-12.256 12.25-29.466 19.379-46.79 19.379zM278.611 643.162c-56.115-26.522-107.008-62.304-150.611-105.453l47.469-47.68c40.518 40.058 87.155 72.032 138.688 95.386l-35.546 57.747zM510.963 695.149c-24.147 0-47.872-1.734-71.194-4.781l39.187-63.667c10.618 0.698 21.274 1.178 32 1.178 64.461 0 126.957-12.614 185.747-37.478 56.826-24.032 107.866-58.451 151.725-102.304l47.571 47.565c-98.541 98.534-234.669 159.488-385.037 159.488zM409.011 431.315l-36.166 58.752c-55.027-20.058-104.467-51.731-145.338-92.077l47.469-47.686c30.522 30.086 65.888 53.779 105.184 70.4 9.478 4.006 19.11 7.507 28.851 10.611zM596.198 436.23c15.558-4.064 30.848-9.216 45.786-15.533 40.038-16.934 76.013-41.203 106.938-72.115l47.565 47.565c-64.614 64.608-151.027 107.341-247.251 116.371l46.963-76.288zM470.682 331.123c-56.659-8.64-107.45-35.085-146.496-73.466l47.462-47.667c37.267 36.499 86.349 56.666 138.56 56.909l-39.526 64.224z"  horiz-adv-x="1024" />

    
    <glyph glyph-name="group-chat" unicode="&#59016;" d="M448 725.331v0c176.723 0 320-115.949 320-258.97s-143.277-258.963-320-258.963c-16.979 0-33.619 1.088-49.901 3.136-68.736-68.454-148.115-80.742-227.437-82.541v0c42.835 20.909 77.338 75.738 77.338 119.238 0 6.074-0.467 12.032-1.344 17.856-72.365 47.462-118.656 120-118.656 201.254 0 143.021 143.277 258.963 320 258.963v0.026zM792 144.87c0-37.286 24.211-84.282 61.331-102.202v0c-68.755 1.53-131.859 12.070-191.424 70.739-14.099-1.766-28.518-2.688-43.238-2.688-63.642 0-122.278 17.171-169.069 46.010 96.442 0.346 187.501 31.232 256.55 87.123 34.803 28.16 62.272 61.229 81.606 98.24 20.499 39.264 30.912 81.050 30.912 124.269 0 6.957-0.301 13.888-0.838 20.781 48.39-39.955 78.17-94.419 78.17-154.451 0-69.658-40.109-131.827-102.829-172.499-0.768-4.998-1.171-10.118-1.171-15.322v0zM792 144.87z"  horiz-adv-x="1024" />

    
    <glyph glyph-name="microphone" unicode="&#59017;" d="M774.752 419.565v0.442c0 19.795-16.186 35.917-35.949 35.917-19.827 0-35.565-16.128-35.565-35.917 0-105.958-85.69-192-191.232-192-105.536 0-191.232 86.042-191.232 192 0 19.795-15.744 35.917-35.571 35.917-19.763 0-35.949-16.128-35.949-35.917v-0.442c0-133.395 98.598-243.334 226.771-260.698v-86.938l-119.245 0c-19.827 0-36.006-16.134-36.006-35.917 0-19.821 16.179-36.006 36.006-36.006h310.445c19.827 0 36.013 16.186 36.013 36.006 0 19.789-16.186 35.917-36.013 35.917h-119.251v86.938c128.173 17.357 226.778 127.302 226.778 260.698v0zM512 288.198c79.219 0 143.469 64.314 143.469 143.885v192c0.006 79.251-64.243 143.917-143.469 143.917s-143.469-64.666-143.469-143.91v-192c0-79.578 64.25-143.891 143.469-143.891v0zM512 288.198z"  horiz-adv-x="1024" />

    
    <glyph glyph-name="camera" unicode="&#59018;" d="M720.269 89.254h-148.762v40.832c149.293 27.885 262.189 158.79 262.189 316.224 0 132.090-79.501 245.338-193.267 294.893-0.019-0.026-0.038-0.051-0.064-0.083-39.322 17.203-82.688 26.88-128.365 26.88-45.683 0-89.043-9.677-128.365-26.874l-0.064 0.077c-113.766-49.555-193.267-162.803-193.267-294.893 0-157.44 112.896-288.339 262.189-316.224v-40.832h-148.762c-28.531 0-29.773-29.734-29.773-29.734v-59.52h476.083v59.52c-0.006 16.378-13.357 29.734-29.773 29.734v0zM619.514 717.402c-28.179-26.33-65.875-42.541-107.514-42.541s-79.334 16.211-107.514 42.534c33.306 13.344 69.523 20.87 107.514 20.87s74.208-7.52 107.514-20.864v0zM353.92 446.31c0 87.322 70.707 158.048 158.080 158.048 87.322 0 158.080-70.733 158.080-158.048 0-87.334-70.765-158.074-158.080-158.074-87.373 0-158.080 70.739-158.080 158.074v0zM595.686 446.31c0 46.246-37.453 83.654-83.686 83.654-15.923 0-30.637-4.672-43.302-12.378 3.949 1.235 8.051 2.048 12.384 2.048 23.443 0 42.426-18.989 42.426-42.438 0-23.424-18.976-42.4-42.426-42.4-23.456 0-42.413 18.982-42.413 42.4 0 4.358 0.838 8.454 2.054 12.403-7.731-12.666-12.403-27.373-12.403-43.302 0-46.266 37.414-83.68 83.68-83.68 46.24 0.013 83.686 37.427 83.686 83.693v0zM595.686 446.31z"  horiz-adv-x="1024" />

    
    <glyph glyph-name="doc-switch" unicode="&#59019;" d="M170.867 0h681.466v384h-681.466v-384zM258.003 299.2h507.2v-214.4h-507.2l0 214.4zM548.467 768v-300.8h303.866v300.8h-303.866zM765.203 552h-129.6v131.2h129.6v-131.2zM210.707 579.219l68.224-96 68.23 96h-47.027v83.334h82.266v-47.021l96 68.224-96 68.224v-47.027h-124.8v-42.4h0.134v-83.334z"  horiz-adv-x="1024" />

    
    <glyph glyph-name="end" unicode="&#59020;" d="M513.2-62.5c-227.9 0-412.6 191-412.6 426.6 0 182.3 110.8 337.5 266.5 398.5-3.2-12.6-5.5-25.7-5.5-39.4v-67.7c-96.5-56.3-162-164.5-162-288.9 0-182.3 140.4-330.1 313.6-330.1 173.2 0 313.6 147.8 313.6 330.1 0 117.6-58.6 220.5-146.5 279v77.6c0 11.1-1.1 21.9-3.3 32.3 146.4-65.5 248.8-216 248.8-391.4 0-235.6-184.7-426.6-412.6-426.6zM513.2 333.9c-20.6 0-49.8 20.2-49.8 45.1v389.7c0 24.9 29.3 60.1 49.8 60.1s49.9-35.2 49.9-60.1v-389.7c0-24.9-29.3-45.1-49.9-45.1z"  horiz-adv-x="1024" />

    
    <glyph glyph-name="detail" unicode="&#59021;" d="M864 702.4h-70.4v-85.088c0-32.243-28.026-58.387-62.579-58.387h-15.629c-34.56 0-62.586 26.144-62.586 58.387v85.088h-70.406v-85.088c0-32.243-28.026-58.387-62.579-58.387h-15.629c-34.554 0-62.586 26.144-62.586 58.387l0 85.088h-70.406v-85.088c0-32.243-28.026-58.387-62.579-58.387h-15.629c-34.56 0-62.586 26.144-62.586 58.387l0 85.088h-70.406c-17.67 0-32-14.394-32-32.147v-639.712c0-17.754 14.33-32.141 32-32.141h704c17.677 0 32 14.387 32 32.141v639.712c0 17.754-14.323 32.147-32 32.147zM774.4 253.766c0-16.442-14.022-29.766-31.334-29.766h-462.131c-17.306 0-31.334 13.325-31.334 29.766v4.461c0 16.448 14.022 29.773 31.334 29.773h462.138c17.306 0 31.334-13.325 31.334-29.766v-4.467zM774.4 420.166c0-16.442-14.022-29.766-31.334-29.766l-462.131-0c-17.312 0-31.334 13.331-31.334 29.766v4.461c0 16.442 14.022 29.773 31.334 29.773h462.138c17.306 0 31.334-13.331 31.334-29.766v-4.467zM339.2 633.446c0-17.587-15.29-31.846-34.131-31.846h-8.531c-18.854 0-34.138 14.259-34.138 31.846v102.707c0 17.587 15.283 31.846 34.131 31.846h8.531c18.848 0 34.138-14.259 34.138-31.846v-102.707zM761.6 633.446c0-17.587-15.29-31.846-34.131-31.846h-8.531c-18.848 0-34.138 14.259-34.138 31.846v102.707c0 17.587 15.29 31.846 34.138 31.846h8.531c18.842 0 34.131-14.259 34.131-31.846v-102.707zM550.4 633.446c0-17.587-15.29-31.846-34.131-31.846h-8.531c-18.854 0-34.138 14.259-34.138 31.846v102.707c0 17.587 15.283 31.846 34.131 31.846h8.531c18.848 0 34.138-14.259 34.138-31.846v-102.707z"  horiz-adv-x="1024" />

    
    <glyph glyph-name="full-screen-s" unicode="&#59022;" d="M808 88h-592v592h364.8v88h-452.8v-768h768v452.8h-88zM808 768h-179.2v-88h106.592l-272.934-272.941 62.221-62.221 283.322 283.315v-127.354h88v267.2z"  horiz-adv-x="1024" />

    
    <glyph glyph-name="not-enter" unicode="&#59023;" d="M512 768c-212.083 0-384-171.923-384-384 0-212.083 171.917-384 384-384 212.077 0 384 171.917 384 384 0 212.077-171.923 384-384 384zM685.581 178.675l-17.818 17.818-17.818-17.818c-14.995-14.995-39.315-14.995-54.304 0s-14.995 39.315 0 54.304l17.818 17.818-17.818 17.818c-14.995 14.995-14.995 39.315 0 54.304 7.866 7.866 18.298 11.494 28.608 11.104-30.835 12.928-66.31 29.434-66.31 29.434v17.344h-0.013c-1.088 5.408-1.658 11.213-1.658 17.613 0 23.872 18.451 16.077 26.554 59.802 3.36 18.138 19.654 0.288 22.784 41.702 0 16.499-8.902 20.602-8.902 20.602s4.518 24.422 6.291 43.219c2.195 23.424-13.53 83.923-97.395 83.923-83.866 0-99.59-60.499-97.389-83.917 1.773-18.797 6.291-43.219 6.291-43.219s-8.896-4.102-8.896-20.602c3.11-41.408 19.411-23.565 22.771-41.702 8.109-43.725 26.554-35.93 26.554-59.802 0-6.4-0.563-12.211-1.658-17.613v-17.338c0 0-62.47-29.062-93.67-40.262 0 0-153.344-50.854-77.395-170.963-59.648 59.136-96.608 141.12-96.608 231.757 0 180.269 146.131 326.4 326.4 326.4 180.262 0 326.4-146.131 326.4-326.4 0-98.202-43.424-186.208-112.058-246.035M737.581 315.181c-9.523 9.53-24.973 9.53-34.509 0l-29.875-29.875-29.875 29.875c-9.53 9.53-24.979 9.53-34.509 0-9.53-9.523-9.53-24.973 0-34.509l29.875-29.875-29.875-29.875c-9.53-9.53-9.53-24.979 0-34.509 9.523-9.53 24.973-9.53 34.509 0l29.875 29.875 29.875-29.875c9.53-9.53 24.979-9.53 34.509 0 9.53 9.523 9.53 24.973 0 34.509l-29.875 29.875 29.875 29.875c9.53 9.536 9.53 24.986 0 34.509z"  horiz-adv-x="1024" />

    
    <glyph glyph-name="record-pause" unicode="&#59033;" d="M372.3648 122.1632c0-67.4816-54.6944-122.1632-122.1824-122.1632l0 0C182.7008 0 128 54.6816 128 122.1632L128 645.8176C128 713.2992 182.7008 768 250.1824 768l0 0c67.4816 0 122.1824-54.7008 122.1824-122.1824L372.3648 122.1632zM896 122.1632c0-67.4816-54.72-122.1632-122.1824-122.1632l0 0c-67.4688 0-122.1824 54.6816-122.1824 122.1632L651.6352 645.8176c0 67.4816 54.7136 122.1824 122.1824 122.1824l0 0C841.28 768 896 713.2992 896 645.8176L896 122.1632z"  horiz-adv-x="1024" />

    
    <glyph glyph-name="delete-notebook" unicode="&#59101;" d="M191.981 648.838c0 21.952 17.914 39.795 40.006 39.795h200.038v39.648c0 21.984 17.875 39.718 40.006 39.718h80.013c22.054 0 40.013-17.805 40.013-39.718v-39.789h199.962c22.054 0 40.006-17.773 40.006-39.725v-39.789h-640.045v39.859zM792.013 529.722v-489.933c0-21.99-17.952-39.795-40.006-39.795h-480.013c-22.093 0-40.006 17.805-40.006 39.795l-0 410.49v119.091h560.026l-0-39.648zM392.013 450.208c0 21.914-18.022 39.789-40.083 39.789-21.984 0-39.936-17.875-39.936-39.789v-331.053c0-21.914 17.952-39.718 40.006-39.718 22.131 0 40.006 17.805 40.006 39.718l0.006 331.053zM552.038 450.208c0 21.914-18.016 39.789-40.006 39.789-22.131 0-40.006-17.875-40.006-39.789v-331.053c0-21.914 17.946-39.718 40.006-39.718 21.99 0 40.006 17.805 40.006 39.718v331.053zM712 450.208c0 21.914-17.952 39.789-40.013 39.789-22.131 0-40.006-17.875-40.006-39.789v-331.053c0-21.914 17.952-39.718 40.006-39.718 22.061 0 40.013 17.805 40.013 39.718v331.053z"  horiz-adv-x="1024" />

    
    <glyph glyph-name="jia1" unicode="&#58911;" d="M832 320 576 320 576 64C576 28.672 547.328 0 512 0 476.608 0 448 28.672 448 64L448 320 192 320C156.608 320 128 348.672 128 384 128 419.328 156.608 448 192 448L448 448 448 704C448 739.328 476.608 768 512 768 547.328 768 576 739.328 576 704L576 448 832 448C867.328 448 896 419.328 896 384 896 348.672 867.328 320 832 320Z"  horiz-adv-x="1024" />

    
    <glyph glyph-name="exit-fullscreen" unicode="&#59137;" d="M729.7 166v-130.6c0-24.1 19.5-43.5 43.5-43.5s43.5 19.5 43.5 43.5v87.1h87.1c24.1 0 43.5 19.5 43.5 43.5 0 24.1-19.5 43.5-43.5 43.5h-130.6c-24 0-43.5-19.5-43.5-43.5zM773.2 775.2c24 0 43.5-19.5 43.5-43.5v-87.1h87.1c24.1 0 43.5-19.5 43.5-43.5 0-24.1-19.5-43.5-43.5-43.5h-130.6c-24.1 0-43.5 19.5-43.5 43.5v130.5c0 24.1 19.5 43.6 43.5 43.6zM120.6 644.5h87.1v87.1c0 24.1 19.5 43.5 43.5 43.5 24.1 0 43.5-19.5 43.5-43.5v-130.6c0-24.1-19.5-43.5-43.5-43.5h-130.6c-24.1 0-43.6 19.5-43.6 43.5 0 24.1 19.5 43.5 43.6 43.5zM338.2 514h347.7v-260.7h-347.7v260.7zM251.2-8.1c-24 0-43.5 19.5-43.5 43.5v87.1h-87.1c-24.1 0-43.6 19.5-43.6 43.5 0 24.1 19.5 43.5 43.5 43.5h130.6c24.1 0 43.5-19.5 43.5-43.5v-130.6c0.1-24.1-19.4-43.5-43.4-43.5z"  horiz-adv-x="1024" />

    
    <glyph glyph-name="area-fullscreen" unicode="&#59139;" d="M889.2-30.6h-155.1c-21.4 0-36.9 24.7-36.9 46.2 0 21.4 24.7 46.2 46.2 46.2h92.3l0.4 101.8c0 20.5 20.5 37 45.9 37s46-16.6 46-37v-155.4c0-21.4-17.4-38.8-38.8-38.8zM928 615.7c0-21.4-24.7-46.2-46.2-46.2-21.4 0-46.2 24.7-46.2 46.2v92.3h-92.3c-21.4 0-46.2 24.7-46.2 46.2s24.7 46.2 46.2 46.2h138.5c21.4 0 46.2-24.7 46.2-46.2M281.7 708h-92.3v-92.3c0-21.4-24.7-46.2-46.2-46.2s-46.2 24.8-46.2 46.2v138.5c0 21.4 24.7 46.2 46.2 46.2h138.5c21.4 0 46.2-24.7 46.2-46.2s-24.8-46.2-46.2-46.2zM281.7 615.7h461.7v-461.7h-461.7v461.7zM374 246.4h277v277h-277v-277zM143.2 200.2c21.4 0 46.2-24.7 46.2-46.2v-92.3h92.3c21.4 0 46.2-24.7 46.2-46.2 0-21.4-24.7-46.2-46.2-46.2h-138.5c-21.4 0-46.2 24.7-46.2 46.2v138.6c0 21.4 24.8 46.1 46.2 46.1z"  horiz-adv-x="1024" />

    
    <glyph glyph-name="voice-mute" unicode="&#59315;" d="M876.9 360.29999999999995l74.7 75c15.9 15.1 16.5 40.3 1.3 56.2-15.1 15.9-40.3 16.5-56.2 1.3l-1.3-1.3-74.7-75-74.7 75c-15.2 15.9-40.3 16.5-56.2 1.3s-16.5-40.3-1.3-56.2c0.4-0.5 0.9-0.9 1.3-1.3l74.7-75-74.7-75c-15.5-15.5-15.6-40.7 0-56.2 15.5-15.5 40.7-15.6 56.2 0l74.7 75 74.7-75c15.5-15.5 40.7-15.5 56.2 0s15.5 40.7 0 56.2l-74.7 75zM554.9 812.6c-16.7 0-32.9-6-45.7-16.8l-245-202.3h-132c-40.1-0.1-72.4-32.8-72.2-72.9v-344.1c-0.1-40.1 32.2-72.7 72.3-73h134.5l245.4-180.7c12.4-9.2 27.3-14.2 42.7-14.2 40.1 0.3 72.5 33 72.3 73.1V739.6c0.1 40.1-32.2 72.7-72.3 73z"  horiz-adv-x="1024" />

    
    <glyph glyph-name="screenshot" unicode="&#59338;" d="M834.99804688 140.59790038999995c-17.05627442 17.55065918-40.2923584 27.76794434-64.7644043 28.26232911H758.3684082l-26.20239258 26.20239257 104.72717286 104.97436524c26.20239258 30.07507325 26.20239258 74.899292-1e-8 104.97436523l-157.04956054-157.3791504-157.13195801 157.3791504c-26.20239258-30.07507325-26.20239258-74.899292 0-104.97436524l104.72717286-104.97436523-26.20239259-26.20239258h-11.94763183c-24.4720459-0.57678223-47.70812989-10.71166992-64.7644043-28.2623291-33.04138184-27.93273926-37.57324219-77.28881836-10.05249023-110.7421875 12.35961914-12.0300293 29.00390625-18.62182617 46.30737305-18.29223633 24.4720459 0.57678223 47.70812989 10.71166992 64.76440429 28.34472656 20.59936523 19.52819825 30.73425293 47.70812989 27.35595703 75.97045899l26.86157227 26.7791748 26.77917481-26.7791748c-3.3782959-28.26232911 6.83898926-56.44226075 27.52075194-75.97045899 16.97387695-17.55065918 40.20996094-27.76794434 64.68200684-28.34472656 17.22106934-0.32958984 33.94775391 6.26220703 46.30737305 18.29223633 27.4383545 33.37097168 22.98889161 82.72705078-10.05249023 110.7421875z m-220.33081055-55.86547852c-3.21350098-7.49816895-7.91015625-14.3371582-13.76037598-20.02258301-5.76782227-5.85021973-12.60681153-10.546875-20.10498046-13.76037597-6.26220703-2.80151367-13.01879883-4.28466797-19.94018556-4.36706543-15.16113281-1.23596192-28.42712403 10.05249023-29.66308593 25.21362305-0.08239747 1.40075684-0.08239747 2.88391114-1e-8 4.28466796 0.08239747 6.83898926 1.56555176 13.51318359 4.28466797 19.77539064 3.21350098 7.49816895 7.91015625 14.3371582 13.76037598 20.022583 5.76782227 5.85021973 12.60681153 10.546875 20.10498047 13.76037598 6.26220703 2.80151367 13.01879883 4.28466797 19.94018555 4.36706543 7.99255372 0.32958984 15.8203125-2.63671875 21.67053223-8.07495118 5.35583497-5.85021973 8.15734864-13.51318359 7.82775878-21.42333984 0-6.83898926-1.40075684-13.59558106-4.11987304-19.85778809v0.08239746z m65.1763916 73.33374024c-20.51696778-0.08239747-37.16125489 16.56188965-37.16125488 36.99645997-0.08239747 20.51696778 16.56188965 37.16125489 36.99645995 37.16125487 20.51696778 0.08239747 37.16125489-16.56188965 37.16125489-36.99645996v-0.08239746c0.08239747-20.43457031-16.39709473-37.07885742-36.9140625-37.16125489l-0.08239747 0.08239747z m140.4876709-103.49121094c-5.93261719-5.35583497-13.67797852-8.15734864-21.67053223-7.82775879-6.83898926 0.08239747-13.67797852 1.56555176-19.94018554 4.36706543-7.49816895 3.29589844-14.3371582 7.91015625-20.10498048 13.76037598-5.85021973 5.76782227-10.46447754 12.52441406-13.76037597 20.02258301-2.71911622 6.26220703-4.20227051 12.93640137-4.28466797 19.77539062-0.32958984 7.91015625 2.47192383 15.57312012 7.82775879 21.42333985 5.85021973 5.43823242 13.67797852 8.32214356 21.67053223 8.07495117 6.83898926-0.08239747 13.67797852-1.56555176 19.94018554-4.36706544 15.16113281-6.67419434 27.19116211-18.70422364 33.94775391-33.78295897 2.71911622-6.26220703 4.20227051-12.93640137 4.28466797-19.77539063 0.49438477-7.99255372-2.30712891-15.8203125-7.66296387-21.75292968l-0.24719238 0.08239745z m-589.05944825 81.73828125V675.76940918c0.08239747 5.60302734 4.61425781 10.05249023 10.1348877 10.13488769h456.8939209c5.52062989-0.08239747 10.05249023-4.53186036 10.13488769-10.1348877v-204.26330565h70.4498291V705.6796875c0 28.01513672-22.74169922 50.75683594-50.75683594 50.75683594H211.74365234c-28.01513672 0-50.75683594-22.74169922-50.75683593-50.75683594v-599.60632325c0-28.01513672 22.74169922-50.75683594 50.75683593-50.75683593h222.39074708v70.4498291H241.73632812c-5.68542481 0-10.29968262 4.61425781-10.29968262 10.38208008l-0.16479491 0.16479492z"  horiz-adv-x="1024" />

    
    <glyph glyph-name="jiancechenggong" unicode="&#59478;" d="M977.6 580.5c-25.5 60.5-61.9 114.8-108.2 161.4C823 788.4 768.9 825.1 708.8 850.6c-62.4 26.5-128.5 40-196.7 40-68.2 0-134.3-13.5-196.7-39.9-60.2-25.7-114.2-62.3-160.6-108.9-46.3-46.6-82.8-101-108.2-161.4-26.3-62.6-39.7-129-39.7-197.6s13.4-135 39.7-197.7c25.5-60.5 61.9-114.8 108.2-161.4 46.3-46.6 100.5-83.3 160.5-108.8 62.3-26.5 128.5-39.9 196.7-39.9 68.2 0 134.3 13.5 196.7 39.9C769-59.4 823-22.8 869.3 23.8c46.3 46.6 82.8 100.9 108.2 161.4 26.3 62.6 39.7 129.1 39.7 197.7 0.1 68.5-13.3 134.9-39.6 197.6zM512.1-72C262.6-72 59.5 132.1 59.5 382.8c0 250.8 203 454.8 452.6 454.8 249.5 0 452.5-204.1 452.5-454.8 0-250.7-203-454.8-452.5-454.8z m265.3 632.1c-12.7 11.5-32.3 10.3-43.7-2.4L438.8 227.2 287.4 363.8c-12.7 11.5-32.3 10.3-43.7-2.4-11.4-12.7-10.3-32.5 2.4-44l173.8-156.7c0.1-0.1 0.3-0.1 0.4-0.3l0.3-0.3c12.7-11.5 32.3-10.3 43.7 2.4l315.5 353.7c11.4 12.7 10.2 32.5-2.4 43.9z m0 0"  horiz-adv-x="1024" />

    
    <glyph glyph-name="jianceshibai" unicode="&#59479;" d="M513.4-74.2c251.1 0 454.6 204.6 454.6 456.9C968 635 764.5 839.6 513.4 839.6 262.3 839.6 58.8 635 58.8 382.7c0-252.3 203.5-456.9 454.6-456.9z m0-50.8c-279 0-505.2 227.3-505.2 507.7C8.3 663.1 234.4 890.4 513.4 890.4s505.1-227.3 505.1-507.7c0.1-280.4-226.1-507.7-505.1-507.7zM293 568.3L700.5 137c9.7-9.6 25.3-9.8 35.1-0.4 9.9 9.4 10.5 25.1 1.5 35.3L329.7 603.3c-9.6 10.2-25.6 10.6-35.7 1s-10.6-25.8-1-36z m407.5 35L293 172c-9.6-10.2-9.2-26.2 1-35.9 10.1-9.6 26.1-9.2 35.7 1l407.5 431.3c6.6 6.5 9.1 16.1 6.5 25-2.5 8.9-9.7 15.7-18.7 17.8-9 2.1-18.3-1-24.5-7.9z m0 0"  horiz-adv-x="1024" />

    
    <glyph glyph-name="shuangping" unicode="&#59480;" d="M670.90625 102.83789062000005c-0.61523438-18.89648438-19.07226563-41.8359375-80.15625-40.07812499H230.046875c-60.64453125 0-77.78320313 27.50976563-80.15625 80.15624999V623.85351563c0 52.64648438 17.13867188 82.52929688 80.15625 80.15624999h400.78125c31.02539063 0 41.484375-10.10742188 40.078125-40.078125-5.88867188-0.26367188 80.15625 0 80.15625 0-1.40625 119.70703125-34.18945313 119.8828125-120.234375 120.234375h-400.78125c-113.81835938 0-161.71875-39.19921875-160.22460938-113.5546875l-0.08789062-527.6953125c0-80.24414063 33.66210938-159.34570313 160.3125-160.3125h360.703125c122.16796875 1.23046875 160.3125 23.81835938 160.3125 120.234375 0 0-49.83398438-0.61523438-80.15625 0z m160.3125 521.015625H470.515625C373.1328125 625.34765625 351.77539062 575.07421875 350.28125 503.61914063v-240.46875001c-1.40625-87.36328125 41.22070313-118.74023438 120.234375-120.23437499h360.703125c111.26953125 0 118.828125 59.94140625 120.234375 120.234375V503.70703125c0 137.4609375-120.234375 120.14648438-120.234375 120.14648438z m40.078125-360.703125c0-18.28125-16.171875-42.97851563-40.078125-40.078125H470.515625c-32.25585938 0-40.078125 8.70117188-40.078125 40.078125V503.61914063c0 21.18164063 20.91796875 41.484375 40.078125 40.07812499h360.703125c32.25585938 0 40.078125-8.7890625 40.078125-40.078125v-240.46874999z"  horiz-adv-x="1024" />

    
    <glyph glyph-name="quxiaoshuangping" unicode="&#59481;" d="M4.7 616.6c-0.1 0-0.1 0 0 0v0z m92.2 0c0 24.7-2 57.8 0 92.3 1.3 29.8 3.2 47.8 46.2 46.2h507.7c35.7 0 47.8-11.6 46.2-46.2-6.8-0.3 92.3 0 92.3 0C787.6 846.8 749.9 847 650.8 847.4H189.2C58.1 847.4 3 802.2 4.7 716.6v-100c36.4-1 92.2 0 92.2 0z m600-553.9c-0.7-20.9-8.1-48.7-92.3-46.2H143.1c-31.9 0-46.6 19.5-46.2 46.2 0.7 44.6 1.5 59.4 0 92.3 0 0-59.1-0.8-92.3 0 0.4 45 0.9 137.2 1 229.8C16 374.4 106.3 284.4 143.1 247.39999999999998c1.8 25 0.3 51.9 0 92.3h138.5V432H143.1c-2.6 46.2-1.3 34.2 0 92.3C119.7 501.1 16.8 398 5.6 386.8c0.1 89.4-0.1 178.9-0.9 226.3v-458.2c0-23.9-0.3-14.8 0-46.2 0.9-98.5 26.2-183.8 184.6-184.6h462.4c125.9-2 137.6 27.4 137.6 138.5-0.1 0.1-57.5-0.6-92.4 0.1z m184.6 600.1H466.1c-112.2 1.7-136.8-56.1-138.5-138.5v-276.9c-1.7-100.6 47.4-136.8 138.5-138.5h415.4c128.2 0 136.8 69.1 138.5 138.5V524.5c0 158.3-138.5 138.3-138.5 138.3z m46.2-415.4c0-21-18.6-49.5-46.2-46.2H466.1c-37.1 0-46.1 10.1-46.2 46.2V524.3c0 24.4 24.1 47.8 46.2 46.2h415.4c37.1 0 46.2-10.1 46.2-46.2v-276.9z"  horiz-adv-x="1024" />

    
    <glyph glyph-name="locking" unicode="&#59484;" d="M828.37535425 454.31936591H722.91690228V594.95809771C722.91690228 711.86867697 628.91058008 805.875 512 805.875S301.08309772 711.86867697 301.08309772 594.95809771v-140.6387318H195.62464575c-19.3615123 0-35.18027985-15.81876755-35.18027985-35.18028067v-421.8338054c0-19.3615123 15.81876755-35.18027985 35.18027985-35.18027984h632.7507085c19.3615123 0 35.18027985 15.81876755 35.18027985 35.18027985v421.83380539c0 19.3615123-15.81876755 35.18027985-35.18027985 35.18028066zM536.96399252 195.03987625000002v-79.91773242c0-13.75903208-11.20496045-24.96399252-24.96399252-24.96399252-13.75903208 0-24.96399252 11.20496045-24.96399252 24.96399252v79.91773242c-28.91868503 10.38106658-49.92798587 37.32240536-49.92798587 69.78383515 0 37.89913073 28.58912732 67.88887812 65.17002722 72.91463213 2.96601855 1.23584162 6.17920642 1.97734626 9.72195117 1.97734626 41.27709705 0 74.80958917-33.53249213 74.80958917-74.80958918 0-32.543819-20.92691162-59.48515778-49.84559665-69.86622436z m115.6747393 259.27948966H371.36126818V594.95809771c0 77.36366079 63.27507101 140.63873182 140.63873182 140.638731S652.63873182 672.32175851 652.63873182 594.95809771v-140.6387318z"  horiz-adv-x="1024" />

    
    <glyph glyph-name="unlock" unicode="&#59488;" d="M828.32184451 454.28191049H371.430824v139.25082486c0 77.53551883 62.20968833 141.55793894 139.74520633 142.0523204 77.78270957 0.49438147 141.4755423-62.95126053 141.4755423-140.65157263v-79.5130447l25.3782573-4.86141971c6.50935821-1.23595367 13.1835097-1.23595367 19.77526538 0l25.13106573 4.86141971V593.36794126C722.93616103 709.5476237299999 629.6628277 805.04567451 513.56554187 805.86964417 395.90271417 806.69361383 301.06383897 712.34911927 301.06383897 594.93348312v-140.56917599H195.67815549c-19.36328055 0-35.18349252-15.82021197-35.18349252-35.18349253v-421.78992544c0-19.36328055 15.82021197-35.18349252 35.18349252-35.18349253h632.64368902c19.36328055 0 35.18349252 15.82021197 35.18349252 35.18349253V419.09841797c0.08239663 19.36328055-15.82021197 35.18349252-35.18349252 35.18349252zM536.96627246 194.97874639999998v-79.34825143c0-13.59549454-10.62920489-25.13106574-24.22470025-25.54305058-14.089876-0.41198483-25.70784466 10.95879309-25.70784467 24.96627246v79.92502956c-28.92132504 10.38201416-49.9325441 37.3258125-49.93254409 69.79020693 0 37.90259143 28.59173768 67.89507687 65.17597796 72.92128985 2.96628965 1.23595367 6.17977002 1.97752671 9.72283859 1.97752671 41.2808659 0 74.81641992-33.53555401 74.81641992-74.81641992 0-32.46439361-20.92882241-59.40819196-49.85014745-69.87260358 0 0.08239663 0 0.08239663 0 0z"  horiz-adv-x="1024" />

    
    <glyph glyph-name="exit-full-screen-s" unicode="&#59544;" d="M857.8 39.39999999999998H167.7V729.5h425.2V832.1H65.1v-895.3h895.3V464.6H857.8zM557.1 338.79999999999995H766V441.4H641.8l318.1 318.1-72.5 72.6-330.3-330.3V650.3H454.6v-311.5z"  horiz-adv-x="1024" />

    
    <glyph glyph-name="continue-recording" unicode="&#59555;" d="M512 682.8c-164.6 0-298-133.4-298-298 0-106.5 56.8-204.8 149-258.1 92.2-53.2 205.8-53.2 298 0 92.2 53.2 149 151.6 149 258.1 0.1 164.6-133.4 298-298 298z m412.2-123.5c-22.5 53.3-54.8 101.2-95.9 142.3-41.1 41.1-89 73.4-142.3 95.9-55.2 23.3-113.8 35.2-174.2 35.2-60.4 0-119-11.8-174.2-35.2-53.3-22.5-101.2-54.8-142.3-95.9-41.1-41.1-73.4-89-95.9-142.3C76 504.1 64.2 445.5 64.2 385.1c0-60.4 11.8-119 35.2-174.2 22.5-53.3 54.8-101.2 95.9-142.3 41.1-41.1 89-73.4 142.3-95.9 55.2-23.3 113.8-35.2 174.2-35.2 60.4 0 119 11.8 174.2 35.2 53.3 22.5 101.2 54.8 142.3 95.9 41.1 41.1 73.4 89 95.9 142.3 23.3 55.2 35.2 113.8 35.2 174.2-0.1 60.4-11.9 119-35.2 174.2zM511.7-11.5C293-11.5 115.2 166.39999999999998 115.2 385s177.9 396.5 396.5 396.5S908.2 603.6 908.2 385 730.4-11.5 511.7-11.5z"  horiz-adv-x="1024" />

    
    <glyph glyph-name="pause-recording" unicode="&#59556;" d="M312.9 583.1c-2.7-157.3 0-398.4 0-398.4 12.4-80.3 147.8-49.8 148.9-0.8 2.2 91.3 0.4 324.3 0.4 399.2 0.1 68-148.1 65.5-149.3 0z m612.2-24.7c-22.6 53.4-54.9 101.3-96 142.5-41.2 41.2-89.1 73.5-142.5 96-55.3 23.4-114 35.2-174.5 35.2S392.9 820.2 337.6 796.9c-53.4-22.6-101.3-54.9-142.5-96-41.2-41.2-73.5-89.1-96-142.5C75.8 503.1 64 444.4 64 384c0-60.5 11.9-119.2 35.2-174.5 22.6-53.4 54.9-101.3 96-142.5 41.2-41.2 89.1-73.5 142.5-96 55.3-23.4 114-35.2 174.5-35.2s119.2 11.9 174.5 35.2c53.4 22.6 101.3 54.9 142.5 96 41.2 41.2 73.5 89.1 96 142.5 23.4 55.3 35.2 114 35.2 174.5-0.1 60.4-11.9 119.1-35.3 174.4z m-413-571.5c-218.9 0-397 178.1-397 397.1s178.1 397 397 397 397.1-178.1 397.1-397.1-178.1-397-397.1-397z m49.8 596.2c-2.7-157.3 0-398.4 0-398.4 12.4-80.3 147.8-49.8 148.9-0.8 2.2 91.3 0.4 324.3 0.4 399.2 0.1 68-148.1 65.5-149.3 0z"  horiz-adv-x="1024" />

    
    <glyph glyph-name="stop-recording" unicode="&#59557;" d="M314.74047852 753.2230224699999h392.29431152c96.32263184 0 174.35302734-78.03039551 174.35302734-174.35302736v-392.29431152c0-96.32263184-78.03039551-174.35302734-174.35302734-174.35302734H314.74047852C218.50024414 12.140258779999954 140.38745117 90.25305175000005 140.38745117 186.49328613V578.7875976600001c0 96.32263184 78.11279297 174.43542481 174.35302735 174.43542481z"  horiz-adv-x="1024" />

    


  </font>
</defs>
</svg>
